<?xml version="1.0" encoding="utf-8"?>
<!-- Generator: Adobe Illustrator 16.0.4, SVG Export Plug-In . SVG Version: 6.00 Build 0)  -->
<!DOCTYPE svg PUBLIC "-//W3C//DTD SVG 1.1//EN" "http://www.w3.org/Graphics/SVG/1.1/DTD/svg11.dtd">
<svg version="1.1" id="Layer_1" xmlns="http://www.w3.org/2000/svg" xmlns:xlink="http://www.w3.org/1999/xlink" x="0px" y="0px"
	 width="400px" height="200px" viewBox="0 0 400 200" enable-background="new 0 0 400 200" xml:space="preserve">
<g>
	<path d="M391.648,131.501c-1.581-1.576-17.307-3.927-19.111-3.927c-1.58,0-2.934,2.065-4.059,3.079
		c-1.131,1.015-2.147,2.089-3.047,3.216c-1.809,2.257,10.313,4.176,8.286,5.752c-1.81,1.353-3.612,2.595-5.416,3.721
		c-1.808,1.131-3.608,1.691-5.413,1.691c-3.381,0-6.035-1.185-7.949-3.552c-1.918-2.369-2.874-5.469-2.874-9.305
		c0-6.766,1.066-13.644,3.211-20.638c2.141-6.988,4.568-13.812,7.275-20.467c2.706-6.652,5.129-12.911,7.274-18.778
		c2.141-5.862,3.214-11.047,3.214-15.563c0-2.928-0.734-5.862-2.2-8.796c-1.469-2.928-3.441-5.583-5.92-7.951
		c-2.483-2.368-5.244-4.281-8.289-5.752c-3.045-1.464-16.953-3.758-19.881-3.758c-6.319,0-12.466,2.858-18.441,5.449
		c-5.979,2.597-0.416,5.471-5.152,8.629c-5.64,3.836-11.055,8.007-16.239,12.516c-2.484-7.215-5.867-13.192-10.148-17.931
		c-4.288-4.735-21.069-8.663-28.512-8.663c-5.87,0-11.562,2.691-17.086,4.941c-5.53,2.258,0.372,4.738-4.138,7.443
		c-5.19,3.163-10.148,6.767-14.887,10.827c-5.19-8.119-9.811-13.195-13.869-15.225c-4.062-2.029-21.371-4.605-23.852-4.605
		c-4.285,0-7.33,3.708-9.134,7.988c-1.077,2.512-2.3,5.514-3.662,8.978c-14.819,26.359-43.075,96.728-79.443,96.242
		c-8.12,0-15.115-2.707-20.978-8.12c-5.867-5.412-8.797-13.195-8.797-23.346c1.804,0.454,3.494,0.794,5.075,1.016
		c2.708,0.677,5.298,1.016,7.782,1.016c10.598,0,19.452-1.861,26.558-5.584c7.105-3.721,12.741-8.171,16.917-13.362
		c4.171-5.187,7.157-10.657,8.964-16.409c1.803-5.751,2.707-10.657,2.707-14.716c0-4.51-0.961-8.909-2.875-13.194
		c-1.92-4.282-4.568-8.062-7.95-11.335c-3.385-3.267-7.333-5.918-11.841-7.949c-4.515-2.03-24.179-4.604-29.363-4.604
		c-7.443,0-15.394,3.588-23.854,7.648c-8.456,4.06-16.296,9.869-23.512,17.424C23.8,63.107,17.826,72.184,13.09,82.782
		c-4.735,10.604-7.105,22.331-7.105,35.187c0,7.221,16.286,13.869,19.213,19.959c2.93,6.092,6.989,11.334,12.181,15.732
		c5.185,4.398,11.387,11.739,18.607,14.221c7.216,2.477,15.108,1.382,23.682,1.382c12.856,0,23.674-4.406,33.324-7.989
		c16.309-6.056,36.012-23.655,52.486-44.548c-0.11,0.529-0.229,1.049-0.337,1.581c-2.142,10.604-3.215,20.865-3.215,30.786
		c0,5.415,3.044,15.328,9.136,18.824c6.09,3.493,13.642-0.216,22.666-0.216c2.481,0,4.343-0.396,5.583-1.187
		c1.236-0.791,1.861-2.647,1.861-5.581c0-16.237,1.576-30.729,4.737-43.476c3.154-12.737,7.046-23.454,11.673-32.139
		c4.618-8.68,9.582-15.278,14.885-19.792c5.296-4.508,9.981-6.766,14.04-6.766c4.061,0,6.089,2.368,6.089,7.104
		c0,4.061-1.015,9.363-3.044,15.902c-2.028,6.543-4.347,13.649-6.935,21.312c-2.597,7.673-4.908,15.511-6.935,23.515
		c-2.032,8.009-3.046,15.511-3.046,22.498c0,5.415,3.046,15.328,9.135,18.824c6.089,3.493,13.642-0.216,22.666-0.216
		c2.48,0,4.341-0.396,5.583-1.187c1.238-0.791,1.859-2.647,1.859-5.581c0-7.891,1.128-16.856,3.385-26.896
		c2.253-10.032,5.862-21.03,10.827-32.987c5.635-13.98,11.725-24.528,18.269-31.631c6.538-7.106,11.725-10.657,15.562-10.657
		c1.804,0,3.267,0.507,4.398,1.521c1.127,1.016,1.69,2.654,1.69,4.905c0,3.838-0.903,8.009-2.705,12.519
		c-1.809,4.515-3.781,9.363-5.922,14.548c-2.145,5.19-4.118,10.942-5.919,17.253c-1.809,6.317-2.708,13.313-2.708,20.976
		c0,11.055,3.944,26.26,11.842,33.136c7.893,6.884,19.761,6.048,31.125,5.643c5.184-0.187,10.151-2.748,14.887-5.115
		c4.737-2.368,8.906-5.126,12.518-8.287c4.059-3.385,7.78-7.327,11.165-11.841c0.449-0.899,1.014-1.804,1.691-2.707
		c1.353-1.804,2.03-3.385,2.03-4.736C394.016,134.773,393.222,133.081,391.648,131.501z M67.488,86.167
		c2.253-6.092,5.128-11.841,8.627-17.257c3.495-5.412,7.496-10.034,12.011-13.869c4.509-3.834,9.134-5.752,13.873-5.752
		c4.058,0,6.089,2.257,6.089,6.766c0,3.612-1.131,8.01-3.384,13.196c-2.256,5.189-5.36,10.207-9.303,15.055
		c-3.949,4.853-8.628,8.964-14.04,12.349c-5.413,3.381-11.165,5.074-17.254,5.074C64.106,97.445,65.23,92.255,67.488,86.167z"/>
	<path fill="#FFFFFF" stroke="#000000" stroke-width="3.1165" stroke-miterlimit="10" d="M376.833,131.501
		c-1.582-1.576-3.271-2.367-5.076-2.367c-1.58,0-2.934,0.506-4.058,1.52c-1.132,1.015-2.147,2.089-3.048,3.216
		c-1.808,2.257-3.722,4.176-5.75,5.752c-1.808,1.353-3.611,2.595-5.414,3.721c-1.809,1.131-3.608,1.691-5.413,1.691
		c-3.381,0-6.036-1.185-7.949-3.552c-1.918-2.369-2.875-5.469-2.875-9.305c0-6.766,1.066-13.644,3.212-20.638
		c2.141-6.988,4.568-13.812,7.275-20.467c2.704-6.652,5.129-12.911,7.272-18.778c2.142-5.862,3.216-11.047,3.216-15.563
		c0-2.928-0.734-5.862-2.201-8.796c-1.468-2.928-3.44-5.583-5.92-7.951c-2.483-2.368-5.245-4.281-8.289-5.752
		c-3.044-1.464-6.036-2.198-8.964-2.198c-6.319,0-12.465,1.299-18.439,3.89c-5.979,2.597-11.334,5.471-16.07,8.629
		c-5.64,3.836-11.055,8.007-16.24,12.516c-2.483-7.215-5.866-13.192-10.147-17.931c-4.289-4.735-10.151-7.104-17.595-7.104
		c-5.868,0-11.561,1.131-17.086,3.382c-5.529,2.258-10.545,4.738-15.055,7.443c-5.19,3.163-10.149,6.767-14.886,10.827
		c-5.191-8.119-9.812-13.195-13.871-15.225c-4.061-2.029-7.333-3.045-9.812-3.045c-4.287,0-7.332,2.148-9.134,6.429
		c-1.077,2.512-2.3,5.514-3.662,8.978c-14.82,26.359-57.112,96.728-93.481,96.242c-8.121,0-15.116-2.707-20.979-8.12
		c-5.866-5.412-8.796-13.195-8.796-23.346c1.803,0.454,3.495,0.794,5.075,1.016c2.708,0.677,5.298,1.016,7.783,1.016
		c10.597,0,19.451-1.861,26.557-5.584c7.106-3.721,12.741-8.171,16.917-13.362c4.171-5.187,7.156-10.657,8.964-16.409
		c1.804-5.751,2.708-10.657,2.708-14.716c0-4.51-0.961-8.909-2.875-13.194c-1.92-4.282-4.568-8.062-7.95-11.335
		c-3.384-3.267-7.333-5.918-11.841-7.949c-4.516-2.03-9.364-3.045-14.548-3.045c-7.443,0-15.394,2.029-23.854,6.089
		c-8.456,4.06-16.296,9.869-23.512,17.424C23.8,63.107,17.826,72.184,13.09,82.782c-4.735,10.604-7.105,22.331-7.105,35.187
		c0,7.221,1.471,13.869,4.398,19.959c2.93,6.092,6.989,11.334,12.181,15.732c5.186,4.398,11.386,7.839,18.607,10.32
		c7.216,2.479,15.109,3.721,23.683,3.721c12.856,0,23.963-2.146,33.324-6.428c16.71-4.843,36.013-23.655,52.487-44.548
		c-0.111,0.529-0.231,1.049-0.339,1.581c-2.14,10.604-3.214,20.865-3.214,30.786c0,5.415,3.044,9.869,9.137,13.364
		c6.088,3.493,13.642,5.244,22.666,5.244c2.479,0,4.341-0.396,5.582-1.187c1.237-0.791,1.861-2.647,1.861-5.581
		c0-16.237,1.577-30.729,4.738-43.476c3.154-12.737,7.046-23.454,11.671-32.139c4.619-8.68,9.584-15.278,14.887-19.792
		c5.296-4.508,9.979-6.766,14.04-6.766s6.089,2.368,6.089,7.104c0,4.061-1.015,9.363-3.044,15.902
		c-2.028,6.543-4.347,13.649-6.934,21.312c-2.598,7.673-4.908,15.511-6.938,23.515c-2.03,8.009-3.044,15.511-3.044,22.498
		c0,5.415,3.044,9.869,9.134,13.364c6.089,3.493,13.643,5.244,22.666,5.244c2.48,0,4.341-0.396,5.583-1.187
		c1.238-0.791,1.86-2.647,1.86-5.581c0-7.891,1.126-16.856,3.385-26.896c2.252-10.032,5.862-21.03,10.826-32.987
		c5.636-13.98,11.725-24.528,18.269-31.631c6.539-7.106,11.725-10.657,15.563-10.657c1.804,0,3.267,0.507,4.397,1.521
		c1.126,1.016,1.691,2.654,1.691,4.905c0,3.838-0.904,8.009-2.706,12.519c-1.808,4.515-3.78,9.363-5.921,14.548
		c-2.146,5.19-4.118,10.942-5.919,17.253c-1.809,6.317-2.708,13.313-2.708,20.976c0,11.055,3.944,20.021,11.842,26.897
		c7.893,6.883,18.271,10.319,31.125,10.319c5.185,0,10.15-1.187,14.887-3.554c4.737-2.368,8.906-5.126,12.518-8.287
		c4.059-3.385,7.78-7.327,11.165-11.841c0.448-0.899,1.014-1.804,1.689-2.707c1.354-1.804,2.032-3.385,2.032-4.736
		C379.201,134.773,378.406,133.081,376.833,131.501z M52.673,86.167c2.252-6.092,5.127-11.841,8.626-17.257
		c3.495-5.412,7.496-10.034,12.012-13.869c4.508-3.834,9.133-5.752,13.871-5.752c4.059,0,6.089,2.257,6.089,6.766
		c0,3.612-1.13,8.01-3.384,13.196c-2.255,5.189-5.359,10.207-9.304,15.055c-3.948,4.853-8.627,8.964-14.039,12.349
		c-5.414,3.381-11.165,5.074-17.255,5.074C49.291,97.445,50.416,92.255,52.673,86.167z"/>
</g>
</svg>
