<?xml version="1.0" encoding="utf-8"?>
<!-- Generator: Adobe Illustrator 16.0.4, SVG Export Plug-In . SVG Version: 6.00 Build 0)  -->
<!DOCTYPE svg PUBLIC "-//W3C//DTD SVG 1.1//EN" "http://www.w3.org/Graphics/SVG/1.1/DTD/svg11.dtd">
<svg version="1.1" id="Layer_1" xmlns="http://www.w3.org/2000/svg" xmlns:xlink="http://www.w3.org/1999/xlink" x="0px" y="0px"
	 width="602px" height="271px" viewBox="0 0 602 271" enable-background="new 0 0 602 271" xml:space="preserve">
<g>
	<path fill="none" stroke="#FFFFFF" stroke-width="4" stroke-miterlimit="10" d="M164.024,79.096c0,4.64-1.46,10.279-4.35,16.939
		c-2.891,6.66-6.881,13.101-11.94,19.32c-5.07,6.229-11.07,11.51-18.02,15.85c-0.921,0.57-1.841,1.101-2.78,1.601
		c0.59-4.42,1.91-9.44,3.99-15.061c2.89-7.819,6.579-15.2,11.069-22.149c4.49-6.94,9.62-12.88,15.42-17.801
		c1.83-1.56,3.681-2.859,5.53-3.93C163.664,75.216,164.024,76.956,164.024,79.096z"/>
	<path fill="#FFFFFF" stroke="#FFFFFF" stroke-width="4" stroke-miterlimit="10" d="M523.096,79.966
		c0,5.8-1.381,12.449-4.121,19.979c-2.76,7.53-5.869,15.56-9.34,24.1s-6.59,17.3-9.34,26.27s-4.119,17.8-4.119,26.479
		c0,4.931,1.229,8.91,3.689,11.95c0.209,0.26,0.439,0.49,0.66,0.73c-0.84,0.56-1.68,1.13-2.521,1.649
		c-2.318,1.46-4.639,2.17-6.949,2.17c-4.34,0-7.75-1.52-10.199-4.55c-2.471-3.04-3.691-7.02-3.691-11.95
		c0-8.68,1.371-17.51,4.121-26.479s5.859-17.73,9.34-26.27c3.471-8.54,6.58-16.569,9.33-24.1s4.129-14.18,4.129-19.979
		c0-3.761-0.939-7.521-2.83-11.29c-1.879-3.761-4.408-7.16-7.59-10.2c-3.189-3.04-6.738-5.5-10.639-7.391
		c-3.91-1.88-7.75-2.819-11.51-2.819c-2.641,0-5.262,0.2-7.852,0.55c4.221-1.49,34.461,0.39,38.371,2.27
		c3.91,1.891,7.449,4.351,10.641,7.391c3.18,3.04,5.709,6.439,7.6,10.2C522.154,72.446,523.096,76.206,523.096,79.966z"/>
	<path fill="#FFFFFF" stroke="#FFFFFF" stroke-width="4" stroke-linecap="round" stroke-miterlimit="10" d="M153.084,194.152
		c-3.18,0.73-6.34,1.793-9.47,1.753c-10.42,0-19.399-3.47-26.93-10.42s-11.29-16.94-11.29-29.96c2.32,0.58,4.49,1.01,6.52,1.3
		c3.471,0.87,6.801,1.3,9.99,1.3c0.87,0,1.71-0.04,2.561-0.06c0.47,11.79,4.21,20.93,11.239,27.42
		C140.824,190.216,146.624,192.643,153.084,194.152z"/>
	<path fill="#FFFFFF" stroke="#FFFFFF" stroke-width="4" stroke-miterlimit="10" d="M211.694,93.866c0,5.21-1.16,11.5-3.479,18.88
		c-2.32,7.391-6.15,14.41-11.5,21.07c-5.36,6.66-12.591,12.37-21.711,17.15c-9.119,4.77-38.81,6.93-41.279,6.46
		c8.49-1.011,15.93-3.15,22.26-6.46c9.12-4.78,16.35-10.49,21.71-17.15c5.36-6.66,9.19-13.679,11.51-21.07
		c2.311-7.38,3.471-13.67,3.471-18.88c0-5.79-1.23-11.439-3.69-16.939c-2.46-5.49-5.86-10.351-10.2-14.551
		c-4.34-4.189-9.41-7.59-15.2-10.199c-5.79-2.61-12.02-3.91-18.67-3.91c-9.55,0-19.76,2.609-30.609,7.819
		c10.85-5.21,21.06-9.819,30.609-9.819c6.65,0,31.893,3.297,37.69,5.91c5.782,2.606,10.85,6.01,15.2,10.199
		c4.34,4.2,7.729,9.061,10.199,14.551C210.465,82.426,211.694,88.076,211.694,93.866z"/>
	
		<path fill="#FFFFFF" stroke="#FFFFFF" stroke-width="4" stroke-linecap="round" stroke-linejoin="round" stroke-miterlimit="10" d="
		M322.734,66.596c-4.23,2.92-8.34,6.05-12.32,9.46c-6.66-10.42-12.59-16.931-17.8-19.54c-5.21-2.601-9.41-3.91-12.6-3.91
		c-2.69,0-5,0.67-6.931,1.99c2.11-2.4,4.761-3.99,7.931-3.99c3.18,0,25.399,3.31,30.61,5.91
		C315.025,58.216,318.725,61.585,322.734,66.596z"/>
	<path fill="#FFFFFF" stroke="#FFFFFF" stroke-width="4" stroke-miterlimit="10" d="M348.686,86.766
		c-1.932,1.229-3.941,2.72-6.01,4.489c-6.811,5.79-13.182,14.261-19.111,25.4c-5.93,11.15-10.93,24.9-14.98,41.25
		c-4.049,16.36-6.08,34.96-6.08,55.8c0,3.771-0.8,6.15-2.39,7.17c-1.59,1.011-3.979,1.521-7.16,1.521
		c-11.58,0-30.239-0.46-30.779-0.891c3.68,0.591,7.59,0.891,11.77,0.891c3.18,0,5.57-0.51,7.16-1.521
		c1.59-1.02,2.39-3.399,2.39-7.17c0-20.84,2.021-39.439,6.08-55.8c4.05-16.35,9.04-30.099,14.98-41.25
		c5.93-11.14,12.301-19.61,19.1-25.4c6.801-5.789,12.82-8.68,18.021-8.68C345.215,82.576,347.545,83.976,348.686,86.766z"/>
	<path fill="#FFFFFF" stroke="#FFFFFF" stroke-width="4" stroke-miterlimit="10" d="M237.685,156.966
		c-0.141,0.68-0.3,1.35-0.44,2.029c-1.62,8.03-2.75,15.91-3.42,23.641c-15.1,14.89-30.74,26.399-44.49,31.51
		c-12.39,4.6-26.27,10.25-42.77,10.25c-11.01,0-32.32-2.521-33.26-2.98c4.58,0.641,9.319,0.98,14.239,0.98
		c16.5,0,30.761-2.76,42.771-8.25C191.765,207.926,216.534,183.785,237.685,156.966z"/>
	<path fill="#FFFFFF" stroke="#FFFFFF" stroke-width="4" stroke-miterlimit="10" d="M420.504,69.116
		c-4.84,3.561-9.559,7.311-14.129,11.28c-3.18-9.26-7.52-16.93-13.02-23.01s-13.031-9.12-22.58-9.12c-2.441,0-4.85,0.17-7.24,0.47
		c4.01-1.42,43.33,2.57,48.83,8.65C415.445,60.786,418.145,64.716,420.504,69.116z"/>
	<path fill="#FFFFFF" stroke="#FFFFFF" stroke-width="4" stroke-miterlimit="10" d="M550.016,182.445c0,1.73-0.861,3.76-2.602,6.08
		c-0.869,1.16-1.6,2.32-2.17,3.47c-4.35,5.8-9.119,10.86-14.33,15.2c-4.639,4.06-9.988,7.6-16.068,10.64s-12.451,6.32-19.111,6.561
		c-11.98,0.43-24.4,1.229-34.07-3.41c4.682,0.94,9.701,1.41,15.061,1.41c6.66,0,13.029-1.521,19.109-4.561s11.432-6.58,16.061-10.64
		c5.211-4.34,9.99-9.4,14.33-15.2c0.58-1.149,1.301-2.31,2.17-3.47c1.74-2.32,2.609-4.35,2.609-6.08c0-2.31-1.02-4.49-3.039-6.51
		c-2.029-2.03-4.199-3.04-6.51-3.04c-1,0-1.93,0.16-2.791,0.47c1.121-1.21,2.391-2.47,3.791-2.47c2.311,0,22.5,3.01,24.529,5.04
		C548.994,177.955,550.016,180.136,550.016,182.445z"/>
	<path fill="#FFFFFF" stroke="#FFFFFF" stroke-width="4" stroke-miterlimit="10" d="M443.455,88.085
		c-2.609,2.11-5.439,4.83-8.51,8.17c-8.4,9.11-16.211,22.65-23.441,40.6c-6.379,15.34-11.01,29.46-13.898,42.33
		c-2.9,12.89-4.34,24.39-4.34,34.52c0,3.771-0.801,6.15-2.391,7.17c-1.6,1.011-3.98,1.521-7.17,1.521
		c-11.58,0-30.24-0.46-30.779-0.891c3.68,0.591,7.6,0.891,11.77,0.891c3.18,0,5.57-0.51,7.16-1.521
		c1.59-1.02,2.389-3.399,2.389-7.17c0-10.13,1.451-21.63,4.34-34.52c2.9-12.87,7.531-26.99,13.9-42.33
		c7.23-17.95,15.051-31.49,23.451-40.6c8.389-9.119,15.049-13.68,19.969-13.68c2.32,0,4.201,0.65,5.65,1.95
		C442.494,85.375,443.125,86.566,443.455,88.085z"/>
	<path fill="none" stroke="#FFFFFF" stroke-width="4" stroke-miterlimit="10" d="M527.965,175.936c-2.029-2.03-4.199-3.04-6.51-3.04
		c-1,0-1.93,0.16-2.791,0.47c-0.879,0.33-1.689,0.82-2.42,1.48c-1.449,1.3-2.76,2.68-3.91,4.13c-2.318,2.89-4.779,5.35-7.379,7.38
		c-1.48,1.1-2.951,2.13-4.43,3.12c-0.84,0.56-1.68,1.13-2.521,1.649c-2.318,1.46-4.639,2.17-6.949,2.17
		c-4.34,0-7.75-1.52-10.199-4.55c-2.471-3.04-3.691-7.02-3.691-11.95c0-8.68,1.371-17.51,4.121-26.479s5.859-17.73,9.34-26.27
		c3.471-8.54,6.58-16.569,9.33-24.1s4.129-14.18,4.129-19.979c0-3.761-0.939-7.521-2.83-11.29c-1.879-3.761-4.408-7.16-7.59-10.2
		c-3.189-3.04-6.738-5.5-10.639-7.391c-3.91-1.88-7.75-2.819-11.51-2.819c-2.641,0-5.262,0.2-7.852,0.55
		c-5.369,0.729-10.648,2.2-15.818,4.439c-7.67,3.341-14.541,7.03-20.621,11.08c-2.27,1.551-4.51,3.15-6.721,4.78
		c-4.84,3.561-9.559,7.311-14.129,11.28c-3.18-9.26-7.52-16.93-13.02-23.01s-13.031-9.12-22.58-9.12c-2.441,0-4.85,0.17-7.24,0.47
		c-5,0.64-9.891,1.92-14.689,3.87c-7.102,2.899-13.541,6.08-19.32,9.56c-2.311,1.4-4.561,2.891-6.791,4.431
		c-4.23,2.92-8.34,6.05-12.32,9.46c-6.66-10.42-12.59-16.931-17.8-19.54c-5.21-2.601-9.41-3.91-12.6-3.91c-2.69,0-5,0.67-6.931,1.99
		c-2.01,1.37-3.609,3.46-4.79,6.26c-1.38,3.229-2.949,7.08-4.699,11.53c-17.75,31.56-66.19,112.279-110.511,122.449
		c-3.18,0.73-6.34,1.11-9.47,1.07c-10.42,0-19.399-3.47-26.93-10.42s-11.29-16.94-11.29-29.96c2.32,0.58,4.49,1.01,6.52,1.3
		c3.471,0.87,6.801,1.3,9.99,1.3c0.87,0,1.71-0.04,2.561-0.06c3.22-0.07,6.3-0.28,9.26-0.64c8.49-1.011,15.93-3.15,22.26-6.46
		c9.12-4.78,16.35-10.49,21.71-17.15c5.36-6.66,9.19-13.679,11.51-21.07c2.311-7.38,3.471-13.67,3.471-18.88
		c0-5.79-1.23-11.439-3.69-16.939c-2.46-5.49-5.86-10.351-10.2-14.551c-4.34-4.189-9.41-7.59-15.2-10.199
		c-5.79-2.61-12.02-3.91-18.67-3.91c-9.55,0-19.76,2.609-30.609,7.819c-10.86,5.21-20.92,12.66-30.181,22.36
		c-9.27,9.7-16.939,21.35-23.02,34.96s-9.12,28.66-9.12,45.16c0,9.26,1.89,17.8,5.65,25.61c3.76,7.819,8.97,14.55,15.63,20.199
		c6.66,5.641,14.62,10.061,23.89,13.24c5.11,1.76,10.5,3.021,16.15,3.8c4.58,0.641,9.319,0.98,14.239,0.98
		c16.5,0,30.761-2.76,42.771-8.25c21.45-6.22,46.22-30.36,67.37-57.18c-0.141,0.68-0.3,1.35-0.44,2.029
		c-1.62,8.03-2.75,15.91-3.42,23.641c-0.46,5.359-0.7,10.659-0.7,15.869c0,6.95,3.9,12.671,11.721,17.16
		c5,2.87,10.779,4.811,17.33,5.84c3.68,0.591,7.59,0.891,11.77,0.891c3.18,0,5.57-0.51,7.16-1.521c1.59-1.02,2.39-3.399,2.39-7.17
		c0-20.84,2.021-39.439,6.08-55.8c4.05-16.35,9.04-30.099,14.98-41.25c5.93-11.14,12.301-19.61,19.1-25.4
		c6.801-5.789,12.82-8.68,18.021-8.68c3.539,0,5.869,1.4,7.01,4.19c0.539,1.33,0.809,2.97,0.809,4.92c0,5.22-1.299,12.02-3.91,20.41
		c-2.6,8.399-5.58,17.52-8.898,27.359c-3.33,9.851-6.301,19.91-8.9,30.181c-2.609,10.279-3.91,19.909-3.91,28.869
		c0,6.95,3.91,12.671,11.73,17.16c5,2.87,10.779,4.811,17.32,5.84c3.68,0.591,7.6,0.891,11.77,0.891c3.18,0,5.57-0.51,7.16-1.521
		c1.59-1.02,2.389-3.399,2.389-7.17c0-10.13,1.451-21.63,4.34-34.52c2.9-12.87,7.531-26.99,13.9-42.33
		c7.23-17.95,15.051-31.49,23.451-40.6c8.389-9.119,15.049-13.68,19.969-13.68c2.32,0,4.201,0.65,5.65,1.95
		c0.939,0.85,1.57,2.04,1.9,3.56c0.17,0.82,0.27,1.73,0.27,2.73c0,4.93-1.16,10.29-3.471,16.07c-2.318,5.8-4.859,12.02-7.6,18.68
		c-2.76,6.66-5.289,14.04-7.6,22.139c-2.32,8.11-3.48,17.09-3.48,26.92c0,14.19,5.07,25.7,15.201,34.521
		c6.84,5.97,15.139,9.91,24.889,11.84c4.682,0.94,9.701,1.41,15.061,1.41c6.66,0,13.029-1.521,19.109-4.561
		s11.432-6.58,16.061-10.64c5.211-4.34,9.99-9.4,14.33-15.2c0.58-1.149,1.301-2.31,2.17-3.47c1.74-2.32,2.609-4.35,2.609-6.08
		C531.004,180.136,529.984,177.955,527.965,175.936z M111.914,117.746c2.891-7.819,6.58-15.2,11.07-22.149
		c4.48-6.94,9.62-12.88,15.42-17.801c5.78-4.92,11.72-7.38,17.8-7.38c3.28,0,5.53,1.15,6.74,3.45c0.72,1.351,1.08,3.09,1.08,5.23
		c0,4.64-1.46,10.279-4.35,16.939c-2.891,6.66-6.881,13.101-11.94,19.32c-5.07,6.229-11.07,11.51-18.02,15.85
		c-0.921,0.57-1.841,1.101-2.78,1.601c-6.12,3.269-12.58,4.91-19.36,4.91C107.574,132.226,109.015,125.566,111.914,117.746z"/>
	<path fill="#FFFFFF" stroke="#FFFFFF" stroke-width="4" stroke-miterlimit="10" d="M162.944,73.866c-1.85,1.07-3.7,2.37-5.53,3.93
		c-5.8,4.921-10.93,10.86-15.42,17.801c-4.49,6.949-8.18,14.33-11.069,22.149c-2.08,5.62-3.4,10.641-3.99,15.061
		c-6.12,3.269-12.58,4.91-19.36,4.91c0-5.49,1.44-12.15,4.34-19.97c2.891-7.819,6.58-15.2,11.07-22.149
		c4.48-6.94,9.62-12.88,15.42-17.801c5.78-4.92,11.72-7.38,17.8-7.38C159.484,70.416,161.734,71.566,162.944,73.866z"/>
</g>
</svg>
